<?xml version="1.0" standalone="no"?>
<!DOCTYPE svg PUBLIC "-//W3C//DTD SVG 20010904//EN"
 "http://www.w3.org/TR/2001/REC-SVG-20010904/DTD/svg10.dtd">
<svg version="1.0" xmlns="http://www.w3.org/2000/svg"
 width="16.000000pt" height="16.000000pt" viewBox="0 0 16.000000 16.000000"
 preserveAspectRatio="xMidYMid meet">

<g transform="translate(0.000000,16.000000) scale(0.100000,-0.100000)"
fill="#000000" stroke="none">
<path d="M0 80 l0 -80 80 0 80 0 0 80 0 80 -80 0 -80 0 0 -80z m140 34 c0 -14
-7 -32 -15 -41 -14 -14 -18 -13 -35 7 l-20 23 -19 -21 c-26 -31 -31 -28 -31
18 l0 40 60 0 c58 0 60 -1 60 -26z m-47 -56 c13 -16 21 -19 24 -10 7 19 23 14
23 -8 0 -23 -34 -28 -44 -7 -5 10 -7 9 -12 0 -5 -12 -64 -19 -64 -8 0 6 43 53
49 54 2 1 13 -9 24 -21z"/>
<path d="M100 110 c0 -5 5 -10 10 -10 6 0 10 5 10 10 0 6 -4 10 -10 10 -5 0
-10 -4 -10 -10z"/>
</g>
</svg>
